<?xml version="1.0" encoding="UTF-8"?>
<svg id="Layer_1" data-name="Layer 1" xmlns="http://www.w3.org/2000/svg" xmlns:xlink="http://www.w3.org/1999/xlink" viewBox="0 0 55.09 59.92">
  <defs>
    <style>
      .cls-1 {
        fill: url(#linear-gradient);
        stroke-width: 0px;
      }
    </style>
    <linearGradient id="linear-gradient" x1="1061.97" y1="-182.06" x2="1117.06" y2="-182.06" gradientTransform="translate(1117.06 -152.1) rotate(-180)" gradientUnits="userSpaceOnUse">
      <stop offset="0" stop-color="#b476ff"/>
      <stop offset=".74" stop-color="#8776ff"/>
      <stop offset="1" stop-color="#7776ff"/>
    </linearGradient>
  </defs>
  <path class="cls-1" d="m32.45,8.78l-4.43,2.34c-.15.08-.31.12-.48.12s-.33-.04-.48-.12l-4.43-2.34c-.31-.17-.51-.48-.51-.82V3.28c0-.34.19-.65.51-.82L27.07.12c.3-.16.66-.16.96,0l4.43,2.34c.31.17.51.48.51.82v4.68c0,.34-.19.65-.51.82Zm-1.46-4.95l-3.44-1.82-3.44,1.82v3.58s3.44,1.82,3.44,1.82l3.44-1.82v-3.58Zm-8.85,48.14v4.68c0,.34.19.65.51.82l4.43,2.34c.15.08.31.12.48.12s.33-.04.48-.12l4.43-2.34c.31-.17.51-.48.51-.82v-4.68c0-.34-.19-.65-.51-.82l-4.43-2.34c-.3-.16-.66-.16-.96,0l-4.43,2.34c-.31.17-.51.48-.51.82Zm22.64-12.99l4.43-2.34c.3-.16.66-.16.96,0l4.43,2.34c.31.17.51.48.51.82v4.68c0,.34-.19.65-.51.82l-4.43,2.34c-.15.08-.31.12-.48.12s-.33-.04-.48-.12l-4.43-2.34c-.31-.17-.51-.48-.51-.82v-4.68c0-.34.19-.65.51-.82Zm1.46,4.95l3.44,1.82,3.44-1.82v-3.58s-3.44-1.82-3.44-1.82l-3.44,1.82v3.58ZM.51,38.98l4.43-2.34c.3-.16.66-.16.96,0l4.43,2.34c.31.17.51.48.51.82v4.68c0,.34-.19.65-.51.82l-4.43,2.34c-.15.08-.31.12-.48.12s-.33-.04-.48-.12l-4.43-2.34C.19,45.13,0,44.82,0,44.48v-4.68c0-.34.19-.65.51-.82Zm1.46,4.95l3.44,1.82,3.44-1.82v-3.58s-3.44-1.82-3.44-1.82l-3.44,1.82v3.58ZM42.34,14.53c.11-.64.45-1.21.95-1.64l-8.38-4.7c-.06.65-.35,1.26-.81,1.72l8.25,4.62Zm1.93.45v4.68c0,.34.19.65.51.82l4.43,2.34c.15.08.31.12.48.12s.33-.04.48-.12l4.43-2.34c.31-.17.51-.48.51-.82v-4.68c0-.34-.19-.65-.51-.82l-4.43-2.34c-.3-.16-.66-.16-.96,0l-4.43,2.34c-.31.17-.51.48-.51.82ZM0,14.98v4.68c0,.34.19.65.51.82l4.43,2.34c.15.08.31.12.48.12s.33-.04.48-.12l4.43-2.34c.31-.17.51-.48.51-.82v-4.68c0-.34-.19-.65-.51-.82l-4.43-2.34c-.3-.16-.66-.16-.96,0L.51,14.16C.19,14.33,0,14.64,0,14.98Zm19.19,20.01l7.87,4.21c.15.08.32.12.48.12s.33-.04.48-.12l7.87-4.21c.31-.17.5-.48.5-.82v-8.43c0-.34-.19-.65-.5-.82l-7.87-4.21c-.3-.16-.67-.16-.96,0l-7.87,4.21c-.31.17-.5.48-.5.82v8.43c0,.34.19.65.5.82Zm-6.45-20.46l8.25-4.62c-.47-.46-.76-1.07-.81-1.72l-8.38,4.7c.5.43.84,1.01.95,1.64Zm-6.35,20.28v-10.16c-.32.11-.65.17-.98.17s-.67-.06-.98-.17v10.16c.64-.21,1.33-.21,1.97,0Zm5.04,12.02l8.75,4.9c.06-.65.35-1.26.81-1.72l-8.36-4.68c-.21.61-.63,1.14-1.21,1.5Zm31.01-1.5l-8.36,4.68c.47.46.76,1.07.81,1.72l8.75-4.9c-.58-.36-1-.89-1.21-1.5Zm8.21-10.52v-10.16c-.32.11-.65.17-.98.17s-.67-.06-.98-.17v10.16c.64-.21,1.33-.21,1.97,0Zm-22.13-15.92v-5.95c-.32.11-.65.17-.98.17s-.67-.06-.98-.17v5.95c.64-.21,1.33-.21,1.97,0Zm-.98,22.31c-.33,0-.67-.06-.98-.17v5.95c.64-.21,1.33-.21,1.97,0v-5.95c-.32.11-.65.17-.98.17Zm9.5-4.69l5.28,3.03c.06-.65.36-1.25.83-1.71l-4.92-2.82c-.2.61-.62,1.14-1.19,1.51Zm-25.43-14.61l5.25,3.01c.2-.61.61-1.14,1.19-1.51l-5.35-3.07c-.16.62-.54,1.18-1.08,1.56Zm26.58,2.92l5.19-3c-.52-.41-.88-.98-1.01-1.61l-5.42,3.13c.59.34,1.03.86,1.25,1.47Zm-21.35,10.14l-4.92,2.84c.48.45.78,1.05.85,1.7l5.24-3.03c-.56-.37-.97-.91-1.16-1.52Z"/>
</svg>