<?xml version="1.0" encoding="utf-8"?>
<!-- Generator: Adobe Illustrator 27.8.0, SVG Export Plug-In . SVG Version: 6.00 Build 0)  -->
<svg version="1.1" id="design" xmlns="http://www.w3.org/2000/svg" xmlns:xlink="http://www.w3.org/1999/xlink" x="0px" y="0px"
	 viewBox="0 0 2500 2000" style="enable-background:new 0 0 2500 2000;" xml:space="preserve">
<style type="text/css">
	.st0{fill:#353C46;}
	.st1{fill:#5CB5B3;}
	.st2{fill:#EC5F67;}
	.st3{fill:#C9CFDB;}
	.st4{fill:#98C793;}
	.st5{fill:#C694C5;}
	.st6{fill:#FB7C59;}
	.st7{fill:#22252A;}
	.st8{fill:#FF5653;}
	.st9{fill:#FFBE0E;}
	.st10{fill:#2BCE35;}
</style>
<g id="code_editor">
	<path class="st0" d="M2383.1,1920.9H107.7c-39.3,0-71.1-31.8-71.1-71.1V214.3h2417.6v1635.5
		C2454.2,1889,2422.4,1920.9,2383.1,1920.9z"/>
	<rect x="356.5" y="392.1" class="st1" width="35.6" height="35.6"/>
	<rect x="427.6" y="392.1" class="st2" width="35.6" height="35.6"/>
	<rect x="498.7" y="392.1" class="st1" width="35.6" height="35.6"/>
	<rect x="285.4" y="392.1" class="st3" width="35.6" height="35.6"/>
	<rect x="285.4" y="480.9" class="st3" width="35.6" height="35.6"/>
	<rect x="285.4" y="569.8" class="st3" width="35.6" height="35.6"/>
	<rect x="285.4" y="658.7" class="st3" width="35.6" height="35.6"/>
	<rect x="285.4" y="747.6" class="st3" width="35.6" height="35.6"/>
	<rect x="285.4" y="836.5" class="st3" width="35.6" height="35.6"/>
	<rect x="285.4" y="925.4" class="st3" width="35.6" height="35.6"/>
	<rect x="285.4" y="1014.3" class="st3" width="35.6" height="35.6"/>
	<rect x="285.4" y="1103.1" class="st3" width="35.6" height="35.6"/>
	<rect x="249.8" y="1192" class="st3" width="71.1" height="35.6"/>
	<rect x="249.8" y="1280.9" class="st3" width="71.1" height="35.6"/>
	<rect x="249.8" y="1369.8" class="st3" width="71.1" height="35.6"/>
	<rect x="249.8" y="1458.7" class="st3" width="71.1" height="35.6"/>
	<rect x="249.8" y="1547.6" class="st3" width="71.1" height="35.6"/>
	<rect x="249.8" y="1636.4" class="st3" width="71.1" height="35.6"/>
	<rect x="569.8" y="1014.3" class="st2" width="71.1" height="35.6"/>
	<rect x="1314.6" y="1014.3" class="st1" width="71.1" height="35.6"/>
	<rect x="676.5" y="1014.3" class="st4" width="602.3" height="35.6"/>
	<rect x="1018.5" y="1103.1" class="st4" width="770.5" height="35.6"/>
	<rect x="1824.5" y="1103.1" class="st1" width="71.1" height="35.6"/>
	<rect x="618.7" y="1103.1" class="st5" width="365.2" height="35.6"/>
	<rect x="1018.5" y="1280.9" class="st4" width="923.4" height="35.6"/>
	<rect x="1975.3" y="1280.9" class="st1" width="71.1" height="35.6"/>
	<rect x="618.7" y="1280.9" class="st5" width="365.2" height="35.6"/>
	<rect x="618.7" y="1458.7" class="st3" width="595.4" height="35.6"/>
	<rect x="685.5" y="1547.6" class="st3" width="63.6" height="35.6"/>
	<rect x="1314.6" y="1547.6" class="st3" width="289.3" height="35.6"/>
	<rect x="1639.5" y="1547.6" class="st3" width="185" height="35.6"/>
	<rect x="784.7" y="1547.6" class="st3" width="494.1" height="35.6"/>
	<rect x="1020.4" y="1636.4" class="st3" width="768.5" height="35.6"/>
	<rect x="1824.5" y="1636.4" class="st3" width="135.1" height="35.6"/>
	<rect x="498.7" y="480.9" class="st1" width="35.6" height="35.6"/>
	<rect x="569.8" y="480.9" class="st2" width="35.6" height="35.6"/>
	<rect x="640.9" y="480.9" class="st5" width="202.7" height="35.6"/>
	<rect x="879.1" y="480.9" class="st4" width="694.6" height="35.6"/>
	<rect x="1609.2" y="480.9" class="st1" width="71.1" height="35.6"/>
	<rect x="2010.9" y="569.8" class="st1" width="71.1" height="35.6"/>
	<rect x="569.8" y="569.8" class="st2" width="131.6" height="35.6"/>
	<rect x="736.9" y="569.8" class="st5" width="197.8" height="35.6"/>
	<rect x="970.3" y="569.8" class="st4" width="1007.5" height="35.6"/>
	<rect x="498.7" y="569.8" class="st1" width="35.6" height="35.6"/>
	<g>
		<rect x="1824.5" y="658.7" class="st1" width="71.1" height="35.6"/>
		<rect x="498.7" y="658.7" class="st1" width="35.6" height="35.6"/>
		<rect x="569.8" y="658.7" class="st2" width="35.6" height="35.6"/>
		<rect x="640.9" y="658.7" class="st5" width="215.7" height="35.6"/>
		<rect x="892.1" y="658.7" class="st4" width="896.8" height="35.6"/>
	</g>
	<g>
		<rect x="1682.3" y="925.4" class="st1" width="71.1" height="35.6"/>
		<rect x="498.7" y="925.4" class="st1" width="35.6" height="35.6"/>
		<rect x="569.8" y="925.4" class="st2" width="35.6" height="35.6"/>
		<rect x="640.9" y="925.4" class="st5" width="215.7" height="35.6"/>
		<rect x="892.1" y="925.4" class="st4" width="752.7" height="35.6"/>
	</g>
	<rect x="498.7" y="1192" class="st1" width="35.6" height="35.6"/>
	<rect x="569.8" y="1192" class="st2" width="35.6" height="35.6"/>
	<rect x="640.9" y="1192" class="st5" width="108.2" height="35.6"/>
	<rect x="784.7" y="1192" class="st5" width="895.7" height="35.6"/>
	<rect x="1715.9" y="1192" class="st1" width="71.1" height="35.6"/>
	<g>
		<rect x="498.7" y="747.6" class="st1" width="35.6" height="35.6"/>
		<rect x="569.8" y="747.6" class="st2" width="106.7" height="35.6"/>
		<rect x="712" y="747.6" class="st1" width="35.6" height="35.6"/>
	</g>
	<g>
		<rect x="640.9" y="836.5" class="st1" width="35.6" height="35.6"/>
		<rect x="712" y="836.5" class="st2" width="133.2" height="35.6"/>
		<rect x="880.7" y="836.5" class="st5" width="208.3" height="35.6"/>
		<rect x="1124.6" y="836.5" class="st4" width="1009.7" height="35.6"/>
		<rect x="2169.9" y="836.5" class="st1" width="71.1" height="35.6"/>
	</g>
	<rect x="640.9" y="1369.8" class="st1" width="35.6" height="35.6"/>
	<rect x="712" y="1369.8" class="st2" width="133.2" height="35.6"/>
	<rect x="880.7" y="1369.8" class="st5" width="208.3" height="35.6"/>
	<rect x="1124.6" y="1369.8" class="st4" width="449.1" height="35.6"/>
	<rect x="1609.2" y="1369.8" class="st1" width="71.1" height="35.6"/>
	<rect x="498.7" y="1014.3" class="st1" width="35.6" height="35.6"/>
	<rect x="498.7" y="1103.1" class="st2" width="84.5" height="35.6"/>
	<rect x="498.7" y="1280.9" class="st2" width="84.5" height="35.6"/>
	<rect x="498.7" y="1458.7" class="st6" width="84.5" height="35.6"/>
	<rect x="498.7" y="1547.6" class="st3" width="151.2" height="35.6"/>
	<rect x="498.7" y="1636.4" class="st3" width="485.2" height="35.6"/>
	<path class="st7" d="M2454.2,214.3H36.6v-71.1c0-39.3,31.8-71.1,71.1-71.1h2275.4c39.3,0,71.1,31.8,71.1,71.1V214.3z"/>
	<circle class="st8" cx="118.3" cy="143.2" r="26.7"/>
	<circle class="st9" cx="207.2" cy="143.2" r="26.7"/>
	<circle class="st10" cx="296.1" cy="143.2" r="26.7"/>
</g>
</svg>
